# xmcd
#
# Track frame offsets: 
#        150
#        15012
#        54162
#        67431
#        82159
#        97736
#        113396
#        128926
#        143686
#        158689
#        175441
#        190880
#        205029
#        219885
#
# Disc length: 3097 seconds
#
# Revision: 1
# Processed by: cddbd v1.5.2PL0 Copyright (c) Steve Scherf et al.
# Submitted via: ExactAudioCopy v0.99pb5
#
DISCID=b10c170e
DTITLE=Various Artist - So schön kann nur Volksmusik sein! CD 3
DYEAR=2005
DGENRE=Volksmusik
TTITLE0=Edward Simoni - Kalinka (Russland)
TTITLE1=Marinechor der Schwarzmeerflotte - Russische Flotte (300jährig
TTITLE1=es Jubiläum)
TTITLE2=Heino - Wir lieben die Stürme
TTITLE3=Bianca - Die Windmühle
TTITLE4=Patrick Lindner - Hab ich Dir heute schon was Liebes gesagt
TTITLE5=Monika Hauff and Klaus-Dieter Henkler - Wenn eines Tages dein Pr
TTITLE5=inz kommt
TTITLE6=Simone Christ - Wo immer du bist
TTITLE7=Die Wildecker Herzbuben - Ohne Heimat
TTITLE8=Stefanie Hertel and Stefan Mross - Nimm mich mit in die Berge
TTITLE9=Lolita - Lili Marleen
TTITLE10=Maria and Margot Hellwig - Ein Sommer in Bavaria
TTITLE11=Maja Brunner - Voll im Trend
TTITLE12=Stefan Mross - Happy Volksmusik
TTITLE13=Florian Silbereisen - A bisserl was geht immer
EXTD=
EXTT0=
EXTT1=
EXTT2=
EXTT3=
EXTT4=
EXTT5=
EXTT6=
EXTT7=
EXTT8=
EXTT9=
EXTT10=
EXTT11=
EXTT12=
EXTT13=
PLAYORDER=
